<?xml version="1.0" encoding="UTF-8"?>
<svg id="Layer_2" data-name="Layer 2" xmlns="http://www.w3.org/2000/svg" viewBox="0 0 45.22 52.21">
  <defs>
    <style>
      .cls-1 {
        fill: none;
      }

      .cls-2 {
        fill: #fffef1;
      }

      .cls-3 {
        fill: #fffef0;
      }
    </style>
  </defs>
  <g id="Layer_1-2" data-name="Layer 1">
    <g>
      <path class="cls-1" d="M20.39,50.76h0l-2.15-1.24-.07-.04-6.82-3.94h0l-2.23-1.29-2.19-1.26-.07-.04L.15,39.07V13.31l2.04,1.18,2.26,1.3,2.26,1.31,2.29,1.32h0l2.23,1.29,2.19,1.26.07.04,2.29,1.32h0l2.23,1.29,4.45,2.57v25.76l-2.07-1.2ZM15.75,43.2l2.48,1.43v-5.56l-4.56-2.63-.03-.02-2.26-1.3-2.29-1.33h0l-2.15-1.24-.07-.04-2.48-1.43v5.56l4.52,2.61.11.06,2.23,1.29,2.26,1.31,2.23,1.29.03.02ZM18.23,34.19v-5.56l-2.37-1.37h0l-2.23-1.29-2.19-1.26-.11-.06-4.41-2.55-.07-.04-2.48-1.43v5.56l2.3,1.33.03.02,2.26,1.3,2.29,1.33h0l6.97,4.02Z"/>
      <polygon class="cls-1" points="22.76 26.19 24.91 24.95 24.94 24.93 27.2 23.62 29.47 22.32 31.73 21.01 33.95 19.73 33.99 19.71 36.32 18.36 36.32 18.36 38.51 17.1 40.77 15.79 43 14.51 43.03 14.49 45.07 13.31 45.07 18.19 42.92 19.43 42.81 19.49 38.29 22.1 38.29 22.11 33.76 24.72 33.76 24.72 31.68 25.92 31.5 26.02 29.35 27.26 29.32 27.28 26.98 28.63 26.98 34.19 31.8 31.41 31.8 31.41 34.06 30.11 34.06 30.11 36.21 28.87 36.25 28.85 38.58 27.5 38.58 27.5 45.07 23.75 45.07 28.63 42.81 29.94 42.81 29.94 38.29 32.55 38.29 32.55 36.1 33.81 33.87 35.1 33.84 35.12 31.5 36.46 31.5 36.46 26.98 39.07 26.98 44.64 29.54 43.16 29.54 43.16 31.69 41.92 31.73 41.9 34.06 40.55 34.06 40.55 40.84 36.63 40.84 36.63 43 35.39 43.03 35.37 45.07 34.19 45.07 39.07 42.81 40.38 42.81 40.38 33.76 45.6 33.76 45.6 31.61 46.84 31.58 46.86 29.32 48.17 27.09 49.45 27.06 49.47 24.79 50.78 22.76 51.96 22.76 26.19"/>
      <g>
        <polygon class="cls-1" points="18.17 23.38 15.88 22.05 15.88 22.05 13.72 20.81 13.65 20.77 11.39 19.46 9.09 18.14 9.09 18.14 6.87 16.85 4.61 15.55 2.35 14.24 .31 13.06 2.35 11.89 4.61 10.58 6.77 9.33 6.94 9.23 9.13 7.97 11.35 6.69 11.39 6.67 13.65 5.36 15.88 4.08 15.91 4.06 18.17 2.75 20.4 1.47 20.43 1.45 22.62 .18 24.81 1.45 26.84 2.62 24.84 3.78 24.81 3.8 22.47 5.15 22.47 5.15 20.32 6.39 20.21 6.45 15.69 9.06 15.69 9.06 13.5 10.33 11.24 11.63 8.76 13.06 11.17 14.46 11.24 14.5 13.54 15.82 13.58 15.87 13.65 15.8 15.88 14.52 15.91 14.5 18.17 13.19 25.03 9.23 25.03 9.23 27.22 7.97 29.48 6.67 31.66 5.4 33.78 6.62 33.85 6.67 35.89 7.84 33.85 9.02 31.62 10.31 31.59 10.33 29.33 11.63 17.8 18.29 20.21 19.68 20.28 19.72 22.62 21.07 24.95 19.72 27.11 18.47 27.29 18.37 29.48 17.11 31.74 15.8 34.07 14.46 34.07 14.46 40.71 10.63 44.93 13.06 42.93 14.22 42.89 14.24 40.63 15.55 38.37 16.85 36.04 18.2 36.04 18.2 33.88 19.44 33.85 19.46 31.59 20.77 29.33 22.07 27.07 23.38 24.84 24.66 24.81 24.68 22.62 25.95 18.17 23.38"/>
        <g>
          <path class="cls-2" d="M26.83,2.69l.08.05v2.36l-2.15,1.24-2.26,1.31-2.26,1.3h-.02s-4.5,2.61-4.5,2.61h-.02s-2.24,1.31-2.24,1.31l-2.15,1.24-1.84-1.06,1.94-1.12,2.26-1.31-.15-.26,2.12-1.22.14-.08,2.26-1.3,2.11-1.22.15-.09.04.07.11.18,2.26-1.31,2.26-1.3-.11-.18-.04-.07.07-.04,1.75-1.01.19-.11M35.96,8.2v2.12l-2.15,1.24-2.26,1.31-2.26,1.3-2.26,1.31-2.26,1.3-.03.02-2.23,1.29-2.26,1.31-.19.11-2.01-1.16-.13-.07.13-.07,2.26-1.3.15.26,2.26-1.31,2.26-1.3,2.26-1.31-.15-.26,2.26-1.3,2.26-1.31h0s.15.26.15.26l2.26-1.31,1.94-1.12M.3,13.13l.19.11,1.82,1.05,2.26,1.3,2.26,1.31,2.19,1.27h0s0,0,0,0l.07.04,2.26,1.31,2.26,1.3.15.09,2.04,1.18.07.04,2.26,1.31,2.26,1.3,2.11,1.22.11.06.11-.06,2.11-1.22.07-.04,2.19-1.27,2.26-1.31,2.26-1.3,2.26-1.31.07-.04,2.04-1.18.15-.09,2.26-1.3,2.26-1.31,2.26-1.3.07-.04,1.75-1.01.19-.11.08.05v.1l-.19.11-1.81,1.05-.07.04-2.19,1.27-2.26,1.31-2.12,1.22-.14.08-2.26,1.3-.07.04-2.19,1.27-2.26,1.3-2.26,1.31-2.26,1.3-.07.04-2.04,1.18-.11.06v25.76l-.08.05-.08-.05v-25.76l-.11-.06-2.11-1.22-2.26-1.3-2.2-1.27-.06-.04-2.26-1.3-.15-.09-2.11-1.22-2.2-1.27-.06-.04-2.26-1.3-2.26-1.31-2.26-1.3-1.82-1.05-.19-.11v-.1l.08-.05M42.96,22.44l2.05,1.18v.1s-.19.11-.19.11l-1.82,1.05-2.26,1.3-2.11,1.22-.15.09-2.26,1.3-.07.04-2.04,1.18-.15.09-2.2,1.27-.06.04-.15-.26-2.26,1.3.15.26-2.26,1.3-.13.07v-2.46l.19-.11,2.26-1.3,2.26-1.31,2.26-1.31,2.26-1.3,2.26-1.31,2.26-1.3,2.15-1.24M42.96,32.88l2.05,1.18v.1l-.19.11-1.81,1.05-.07.04-2.04,1.18-.15.09-2.26,1.3-2.26,1.31-2.11,1.22-.15.09-2.26,1.3h0s-.15-.26-.15-.26l-2.26,1.3.15.26h0s-2.26,1.31-2.26,1.31l-.13.07v-2.46l.19-.11,2.26-1.31,2.26-1.3,2.26-1.31,2.26-1.31,2.26-1.3,2.26-1.31,2.16-1.24M22.61,0h0l-2.26,1.31h0l-2.26,1.3-2.26,1.31h0l-2.26,1.3-2.26,1.31h0l-2.26,1.31-2.26,1.3h0s0,0,0,0l-2.26,1.31-2.26,1.3-2.26,1.31v26.11l2.26,1.3,2.26,1.31,2.26,1.3h0s2.26,1.31,2.26,1.31l2.26,1.31h0l2.26,1.3,2.26,1.31,2.26,1.3h0s2.26,1.31,2.26,1.31h0l2.26,1.3,2.26-1.3,2.26-1.31h0l2.26-1.3,2.26-1.31h0l2.26-1.3h0s4.52-2.61,4.52-2.61h0s2.26-1.31,2.26-1.31l2.26-1.3h0s2.26-1.31,2.26-1.31v-5.22h0s-2.26-1.3-2.26-1.3h0l-2.26,1.3-2.26,1.31-2.26,1.3h0s-2.26,1.31-2.26,1.31h0l-2.26,1.31-2.26,1.3-2.26,1.31v-2.61l2.26-1.3,2.26-1.3h0s2.26-1.31,2.26-1.31h0l2.26-1.31,2.26-1.3h0s4.52-2.61,4.52-2.61h0s2.26-1.31,2.26-1.31h0v-5.22h0s-2.26-1.31-2.26-1.31l-2.26,1.31-2.26,1.3h0s0,0,0,0l-2.26,1.31-2.26,1.3-2.26,1.31h0l-2.26,1.31-2.26,1.3v-2.61l2.26-1.3h0l2.26-1.3h0s0,0,0,0l2.26-1.3h0s2.26-1.31,2.26-1.31l2.26-1.3h0s2.26-1.31,2.26-1.31l2.26-1.3h0s0,0,0,0l2.26-1.3v-5.22l-2.26-1.31-2.26-1.3-2.26,1.3-2.26,1.31-2.26,1.3h0s-2.26,1.31-2.26,1.31l-2.26,1.31-2.26,1.3h0s0,0,0,0l-2.26,1.31-2.26,1.3-2.26-1.3h0s2.26-1.31,2.26-1.31h0l2.26-1.3h0s2.26-1.31,2.26-1.31h0l2.26-1.31,2.26-1.3,2.26-1.31,2.26-1.3v-2.61l-2.26,1.3-2.26,1.31h0l2.26-1.31,2.26-1.3-2.26-1.3h0s-2.26-1.31-2.26-1.31l-2.26,1.3-2.26,1.31-2.26,1.3h0s-2.26,1.31-2.26,1.31l-2.26,1.31-2.26,1.3-2.26,1.31h0l-2.26,1.3h0l-2.26-1.3h0s-2.26-1.31-2.26-1.31l2.26-1.3,2.26-1.31-2.26,1.31-2.26,1.3,2.26,1.3,2.26-1.3,2.26-1.3h0s4.52-2.61,4.52-2.61h0s0,0,0,0l2.26-1.3,2.26-1.31,2.26-1.31v-2.61h0l-2.26-1.31L22.61,0h0ZM9.12,17.98l-2.19-1.27-2.26-1.31-2.26-1.3-1.82-1.05,1.82-1.05,2.26-1.3,2.07-1.19.34-.2,2.11-1.22,2.19-1.27h0l.07-.04,2.26-1.31,2.19-1.27h0l.07-.04,2.26-1.31,2.19-1.27h0l.07-.04,2.11-1.22,2.11,1.22,1.82,1.05-1.75,1.01h0l-.07.04-2.26,1.3-.15.09-2.04,1.18-.22.13-2.11,1.22-2.26,1.3-.14.08-2.12,1.22-2.26,1.31-2.26,1.3-.44.26.44.26,2.11,1.22h0s.15.09.15.09l2.26,1.3.07.04.08.05.08-.05.07-.04,2.19-1.27h0l.07-.04,2.26-1.31,2.26-1.3,2.26-1.31,2.26-1.3.14-.08,2.12-1.22,2.26-1.31,2.11-1.22,1.96,1.13h0s.15.09.15.09l1.82,1.05-1.82,1.05-2.19,1.27h0l-.07.04-2.26,1.31-2.26,1.3-2.26,1.31-2.26,1.3-2.26,1.31-2.26,1.3-.45.26.45.26,2.11,1.22h0s.15.09.15.09l2.26,1.3.15.09.15-.09,2.26-1.3,2.06-1.19.35-.2,2.11-1.22,2.26-1.31,2.26-1.3.15-.09h0s2.11-1.22,2.11-1.22l2.26-1.31,2.11-1.22,2.11,1.22,1.82,1.05-1.75,1.01h0l-.07.04-2.26,1.3-2.26,1.31-2.26,1.3-.15.09h0s-2.04,1.18-2.04,1.18h0l-.07.04-2.26,1.31-2.26,1.3-2.26,1.31-2.19,1.27h0l-.07.04-2.11,1.22-2.11-1.22-2.26-1.3-2.26-1.31-.07-.04h0l-2.04-1.18h0s-.15-.09-.15-.09l-2.26-1.3-2.26-1.31-.07-.04h0ZM20.35,6.53l2.26-1.3h0s2.26-1.31,2.26-1.31h0l-2.26,1.3h0s-2.26,1.31-2.26,1.31h0ZM20.35,16.97l2.26-1.31,2.26-1.3,2.26-1.31-2.26,1.31-2.26,1.3-2.26,1.31h0ZM22.91,51.7v-25.42l2.04-1.18h0l.07-.04,2.26-1.3,2.26-1.31,2.26-1.3,2.19-1.27h0l.07-.04,2.26-1.3.14-.08,2.12-1.22,2.26-1.31,2.19-1.27h0l.07-.04,1.82-1.05v4.54l-2.04,1.18-.22.13-2.11,1.22-2.26,1.3-.14.08-2.12,1.22-2.26,1.3-.15.09-1.91,1.1-.35.2-2.04,1.18h0l-.07.04-2.26,1.3-.15.09v5.91l.44-.26,2.26-1.3,2.26-1.3.06-.04,2.2-1.27.15-.09,2.04-1.18h0l.07-.04,2.26-1.3.15-.09,2.11-1.22,2.26-1.3,1.82-1.05v4.54l-2.11,1.22-.15.09-4.37,2.52-.14.08-2.12,1.22-2.19,1.27h0l-.07.04-2.26,1.3-.15.09-2.11,1.22-2.26,1.3-.15.09v5.91l.44-.26,2.26-1.3.15-.09,2.04-1.18h0l.07-.04,2.26-1.3.15-.09,2.11-1.22,2.26-1.31,2.26-1.3.15-.09,2.04-1.18h0l.07-.04,1.82-1.05v4.54l-2.11,1.22-.15.09h0s-2.11,1.22-2.11,1.22l-2.26,1.3-.06.04-4.46,2.57-.15.09-2.04,1.18h0l-.07.04-2.26,1.31-2.19,1.27h0l-.07.04-2.26,1.31-1.82,1.05h0ZM22.31,51.7l-1.82-1.05-.07-.04-2.05-1.18h0s-.15-.09-.15-.09l-2.26-1.3-2.26-1.31-2.26-1.3-.07-.04-2.19-1.27-2.11-1.22h0s-.15-.09-.15-.09l-2.26-1.3-2.26-1.31-2.11-1.22V13.57l1.82,1.05,2.26,1.3,2.26,1.31,2.26,1.3.07.04,2.2,1.27,2.11,1.22h0s.15.09.15.09l2.26,1.3.07.04,2.2,1.27,2.26,1.3,2.11,1.22v25.42h0ZM29.39,32.63l2.26-1.3h0s0,0,0,0h0s-2.26,1.31-2.26,1.31h0ZM29.39,43.08l2.26-1.3h0l-2.26,1.3h0Z"/>
          <g>
            <path class="cls-3" d="M4.33,36.66v-5.66l13.95,8.05v5.66l-13.95-8.05ZM6.68,35.3l11.52,6.65v-2.86l-11.52-6.65v2.86Z"/>
            <path class="cls-2" d="M4.44,31.18l.13.07,2.01,1.16v2.95l.11.06,2.26,1.31h0l2.26,1.3,2.26,1.31,2.26,1.3,2.26,1.31.19.11v2.46l-.13-.07-2.26-1.3-.15-.09-2.11-1.22h0l.15-.26-2.26-1.31-2.26-1.3-.15.26-.15-.09-2.11-1.22-2.26-1.3-.04-.02v-5.42M4.23,30.81v5.91l.15.09,2.26,1.3,2.11,1.22.22.13,2.19,1.27,2.26,1.31,2.11,1.22h0s.15.09.15.09l2.26,1.3.44.26v-5.91l-.15-.09-2.26-1.3-2.11-1.22h0s-.15-.09-.15-.09l-2.26-1.3-2.26-1.31-.07-.04h0l-2.04-1.18h0s-.15-.09-.15-.09l-2.26-1.3-.44-.26h0ZM9.04,36.55h0s-2.26-1.31-2.26-1.31v-2.61l2.26,1.3h0l2.26,1.31,2.26,1.3h0s0,0,0,0l2.26,1.3,2.26,1.3v2.61l-2.26-1.31h0l-2.26-1.3-2.26-1.31-2.26-1.3h0ZM13.56,41.77l-2.26-1.31-2.26-1.3,2.26,1.3,2.26,1.31h0Z"/>
          </g>
          <g>
            <g>
              <path class="cls-3" d="M45.11,18.21v-5.1l-4.42-2.55-18.09,10.44-2.47-1.43,15.93-9.2v-2.49l-4.42-2.55L13.56,15.79l-2.47-1.43,15.93-9.2v-2.49S22.61.12,22.61.12L.11,13.12v25.98l22.5,12.99,22.5-12.99v-5.1l-2.16-1.24-15.93,9.2v-2.86l18.09-10.44v-5.1l-2.16-1.24-15.93,9.2v-2.86l18.09-10.44ZM20.4,17.06l-.11-.18,6.78-3.92.11.18-6.78,3.92ZM9.1,13.15l-.11-.18,4.52-2.61.11.18-4.52,2.61ZM20.4,6.62l-.11-.18,4.52-2.61.11.18-4.52,2.61ZM22.42,51.88L.19,39.05V13.38l22.23,12.83v25.67ZM.38,13.05L22.61.22l4.14,2.39L8.66,13.05l4.9,2.83L31.65,5.44l4.14,2.39-18.09,10.44,4.9,2.83,18.09-10.44,4.14,2.39-22.23,12.83L.38,13.05ZM31.6,41.68l.11.18-2.26,1.31-.11-.18,2.26-1.31ZM45.03,23.83v4.78l-18.09,10.44v5.66l18.09-10.44v4.78l-22.23,12.83v-25.67l22.23-12.83v4.78l-18.09,10.44v5.66l18.09-10.44Z"/>
              <path class="cls-3" d="M18.28,28.61l-13.95-8.05v5.66l13.95,8.05v-5.66ZM18.19,31.51l-11.52-6.65v-2.86l11.52,6.65v2.86Z"/>
            </g>
            <path class="cls-2" d="M4.44,20.74l.13.07,2.01,1.16v2.95l.11.06,2.26,1.3,2.26,1.31h0s2.26,1.3,2.26,1.3l2.26,1.31,2.26,1.3.19.11v2.46l-.13-.07-2.26-1.3-2.26-1.31.15-.26-2.26-1.3-.15.26h0s.04-.07.04-.07l.11-.18-2.26-1.31-.15.26h0l-2.26-1.3-.15-.09-2.11-1.22-.04-.02v-5.42M4.23,20.37v5.91l.15.09,2.11,1.22h0s.15.09.15.09l2.26,1.3,2.26,1.31.07.04h0l2.19,1.27,2.26,1.31,2.26,1.3.44.26v-5.91l-.15-.09-2.26-1.3-.07-.04-2.19-1.27-2.11-1.22-.22-.13-2.19-1.27-2.11-1.22h0s-.15-.09-.15-.09l-2.26-1.3-.44-.26h0ZM11.3,27.41l-2.26-1.31-2.26-1.3v-2.61l2.26,1.3,2.26,1.3h0s2.26,1.31,2.26,1.31l2.26,1.31h0l2.26,1.3v2.61l-2.26-1.3h0l-2.26-1.31-2.26-1.3h0ZM11.3,30.02l-2.26-1.31,2.26,1.31h0ZM13.56,31.33l-2.26-1.3h0l2.26,1.3h0Z"/>
          </g>
        </g>
      </g>
    </g>
  </g>
</svg>