<?xml version="1.0" encoding="UTF-8"?>
<svg id="Layer_2" data-name="Layer 2" xmlns="http://www.w3.org/2000/svg" viewBox="0 0 228.8 53.22">
  <defs>
    <style>
      .cls-1 {
        fill: #fffef1;
      }

      .cls-2 {
        fill: #fffef0;
      }
    </style>
  </defs>
  <g id="Layer_1-2" data-name="Layer 1">
    <g>
      <g>
        <path class="cls-2" d="M79.22,40.29c-.74-.22-1.43-.55-2.06-.98s-1.2-.94-1.69-1.53l-1.06,2.51h-2.73V12.47h4.45v.34c-.18.17-.3.35-.35.55s-.07.53-.07,1.01v9.52c.34-.45.72-.86,1.16-1.25.43-.39.92-.73,1.46-1.02.54-.29,1.1-.51,1.69-.65.59-.14,1.17-.21,1.76-.21,1.3,0,2.48.21,3.54.62s1.98,1.02,2.76,1.83c.77.81,1.37,1.82,1.78,3.03.42,1.21.63,2.62.63,4.25,0,1.7-.25,3.19-.74,4.47s-1.16,2.34-1.99,3.17c-.83.84-1.78,1.46-2.85,1.88s-2.17.62-3.31.62c-.83,0-1.62-.11-2.36-.34ZM83.02,37.26c.65-.23,1.23-.62,1.76-1.17.52-.55.93-1.26,1.23-2.15.29-.89.44-1.96.44-3.21,0-1.17-.13-2.21-.39-3.09-.26-.89-.63-1.62-1.09-2.21-.46-.59-1.03-1.02-1.69-1.31-.66-.29-1.4-.43-2.2-.43-1.08,0-2.02.29-2.82.86-.8.57-1.43,1.39-1.88,2.46-.45,1.06-.67,2.29-.67,3.69,0,1.06.1,2.02.3,2.87.2.85.51,1.58.93,2.19.42.61.96,1.08,1.62,1.39.66.32,1.47.47,2.43.47.71,0,1.39-.12,2.04-.35Z"/>
        <path class="cls-2" d="M104.83,40.62c-1.54,0-2.96-.21-4.24-.64-1.28-.43-2.39-1.05-3.33-1.88-.94-.83-1.66-1.86-2.15-3.1-.49-1.24-.74-2.65-.74-4.21s.25-3.02.76-4.26,1.21-2.29,2.11-3.14c.9-.85,1.95-1.51,3.15-1.96,1.2-.45,2.48-.68,3.84-.68,1.2,0,2.35.19,3.43.56,1.08.37,2.01.93,2.8,1.68.79.75,1.41,1.7,1.88,2.84s.7,2.5.7,4.05c0,.25,0,.52-.02.81s-.04.55-.07.77h-14.77c.06,1.11.28,2.07.67,2.87.39.8.89,1.45,1.5,1.96.62.5,1.32.87,2.11,1.12s1.63.37,2.52.37c.71,0,1.38-.07,2.01-.21s1.23-.36,1.78-.67c.56-.31,1.06-.68,1.53-1.13l2.13,1.84c-.62.67-1.32,1.23-2.11,1.7s-1.64.79-2.55,1c-.91.21-1.89.31-2.94.31ZM98.3,28.74h10.79c0-.82-.12-1.55-.37-2.18-.25-.63-.59-1.18-1.02-1.65-.43-.47-.97-.82-1.6-1.05-.63-.23-1.34-.35-2.11-.35-.71,0-1.37.1-1.99.31-.62.2-1.18.53-1.69.97-.51.44-.94.98-1.3,1.63s-.59,1.42-.72,2.33Z"/>
        <path class="cls-2" d="M127.99,40.62c-1.54,0-2.96-.21-4.24-.64-1.28-.43-2.39-1.05-3.33-1.88-.94-.83-1.66-1.86-2.15-3.1-.49-1.24-.74-2.65-.74-4.21s.25-3.02.76-4.26,1.21-2.29,2.11-3.14c.9-.85,1.95-1.51,3.15-1.96,1.2-.45,2.48-.68,3.84-.68,1.2,0,2.35.19,3.43.56,1.08.37,2.01.93,2.8,1.68.79.75,1.41,1.7,1.88,2.84s.7,2.5.7,4.05c0,.25,0,.52-.02.81s-.04.55-.07.77h-14.77c.06,1.11.28,2.07.67,2.87.39.8.89,1.45,1.5,1.96.62.5,1.32.87,2.11,1.12s1.63.37,2.52.37c.71,0,1.38-.07,2.01-.21s1.23-.36,1.78-.67c.56-.31,1.06-.68,1.53-1.13l2.13,1.84c-.62.67-1.32,1.23-2.11,1.7s-1.64.79-2.55,1c-.91.21-1.89.31-2.94.31ZM121.46,28.74h10.79c0-.82-.12-1.55-.37-2.18-.25-.63-.59-1.18-1.02-1.65-.43-.47-.97-.82-1.6-1.05-.63-.23-1.34-.35-2.11-.35-.71,0-1.37.1-1.99.31-.62.2-1.18.53-1.69.97-.51.44-.94.98-1.3,1.63s-.59,1.42-.72,2.33Z"/>
        <path class="cls-2" d="M165.13,40.29v-2.85h6.16V15.32h-5.88v-2.85h9.91v24.97h6.16v2.85h-16.35Z"/>
        <path class="cls-2" d="M197.45,40.62c-1.54,0-2.96-.21-4.24-.64-1.28-.43-2.39-1.05-3.33-1.88-.94-.83-1.66-1.86-2.15-3.1-.49-1.24-.74-2.65-.74-4.21s.25-3.02.76-4.26,1.21-2.29,2.11-3.14c.9-.85,1.95-1.51,3.15-1.96,1.2-.45,2.48-.68,3.84-.68,1.2,0,2.35.19,3.43.56,1.08.37,2.01.93,2.8,1.68.79.75,1.41,1.7,1.88,2.84s.7,2.5.7,4.05c0,.25,0,.52-.02.81s-.04.55-.07.77h-14.77c.06,1.11.28,2.07.67,2.87.39.8.89,1.45,1.5,1.96.62.5,1.32.87,2.11,1.12s1.63.37,2.52.37c.71,0,1.38-.07,2.01-.21s1.23-.36,1.78-.67c.56-.31,1.06-.68,1.53-1.13l2.13,1.84c-.62.67-1.32,1.23-2.11,1.7s-1.64.79-2.55,1c-.91.21-1.89.31-2.94.31ZM190.92,28.74h10.79c0-.82-.12-1.55-.37-2.18-.25-.63-.59-1.18-1.02-1.65-.43-.47-.97-.82-1.6-1.05-.63-.23-1.34-.35-2.11-.35-.71,0-1.37.1-1.99.31-.62.2-1.18.53-1.69.97-.51.44-.94.98-1.3,1.63s-.59,1.42-.72,2.33Z"/>
        <path class="cls-2" d="M220.6,40.62c-1.54,0-2.96-.21-4.24-.64-1.28-.43-2.39-1.05-3.33-1.88-.94-.83-1.66-1.86-2.15-3.1-.49-1.24-.74-2.65-.74-4.21s.25-3.02.76-4.26,1.21-2.29,2.11-3.14c.9-.85,1.95-1.51,3.15-1.96,1.2-.45,2.48-.68,3.84-.68,1.2,0,2.35.19,3.43.56,1.08.37,2.01.93,2.8,1.68.79.75,1.41,1.7,1.88,2.84s.7,2.5.7,4.05c0,.25,0,.52-.02.81s-.04.55-.07.77h-14.77c.06,1.11.28,2.07.67,2.87.39.8.89,1.45,1.5,1.96.62.5,1.32.87,2.11,1.12s1.63.37,2.52.37c.71,0,1.38-.07,2.01-.21s1.23-.36,1.78-.67c.56-.31,1.06-.68,1.53-1.13l2.13,1.84c-.62.67-1.32,1.23-2.11,1.7s-1.64.79-2.55,1c-.91.21-1.89.31-2.94.31ZM214.07,28.74h10.79c0-.82-.12-1.55-.37-2.18-.25-.63-.59-1.18-1.02-1.65-.43-.47-.97-.82-1.6-1.05-.63-.23-1.34-.35-2.11-.35-.71,0-1.37.1-1.99.31-.62.2-1.18.53-1.69.97-.51.44-.94.98-1.3,1.63s-.59,1.42-.72,2.33Z"/>
      </g>
      <g>
        <path class="cls-1" d="M19.11,39.01l-13.95-8.05c-.19-.11-.43-.11-.62,0s-.31.32-.31.54v5.66c0,.22.12.43.31.54l13.95,8.05c.1.06.21.08.31.08s.22-.03.31-.08c.19-.11.31-.32.31-.54v-5.66c0-.22-.12-.43-.31-.54ZM7.82,35.44v-1.41l10.27,5.93v1.41l-10.27-5.93Z"/>
        <path class="cls-1" d="M45.94,19.26c.19-.11.31-.32.31-.54v-5.1c0-.22-.12-.43-.31-.54l-4.42-2.55c-.19-.11-.43-.11-.62,0l-17.77,10.26-1.22-.71,15-8.66c.19-.11.31-.32.31-.54v-2.49c0-.22-.12-.43-.31-.54l-4.42-2.55c-.19-.11-.43-.11-.62,0L14.08,15.57l-1.22-.71,15-8.66c.19-.11.31-.32.31-.54v-2.49c0-.22-.12-.43-.31-.54L23.44.08c-.19-.11-.43-.11-.62,0L.31,13.08c-.19.11-.31.32-.31.54v25.98c0,.22.12.43.31.54l22.5,12.99c.1.06.21.08.31.08s.22-.03.31-.08l22.5-12.99c.19-.11.31-.32.31-.54v-5.1c0-.22-.12-.43-.31-.54l-2.16-1.24c-.19-.11-.43-.11-.62,0l-14.99,8.66v-1.41l17.77-10.26c.19-.11.31-.32.31-.54v-5.1c0-.22-.12-.43-.31-.54l-2.16-1.24c-.19-.11-.43-.11-.62,0l-14.99,8.66v-1.41l17.77-10.26ZM23.13,1.44l2.89,1.67L8.87,13.01c-.19.11-.31.32-.31.54s.12.43.31.54l4.9,2.83c.19.11.43.11.62,0l17.77-10.26,2.89,1.67-17.15,9.9c-.19.11-.31.32-.31.54s.12.43.31.54l4.9,2.83c.19.11.43.11.62,0l17.77-10.26,2.89,1.67-20.98,12.11L2.15,13.56,23.13,1.44ZM27.15,35.31c.19.11.43.11.62,0l17.15-9.9v3.34l-17.77,10.26c-.19.11-.31.32-.31.54v5.66c0,.22.12.43.31.54s.43.11.62,0l17.15-9.9v3.34l-20.98,12.11v-24.22l20.98-12.11v3.34l-17.77,10.26c-.19.11-.31.32-.31.54v5.66c0,.22.12.43.31.54ZM1.33,39.19V14.97l20.98,12.11v24.22L1.33,39.19Z"/>
        <path class="cls-1" d="M19.11,28.57l-13.95-8.05c-.19-.11-.43-.11-.62,0s-.31.32-.31.54v5.66c0,.22.12.43.31.54l13.95,8.05c.1.06.2.08.31.08s.22-.03.31-.08c.19-.11.31-.32.31-.54v-5.66c0-.22-.12-.43-.31-.54ZM7.82,25v-1.41l10.27,5.93v1.41l-10.27-5.93Z"/>
      </g>
    </g>
  </g>
</svg>