<?xml version="1.0" encoding="UTF-8"?>
<svg id="Layer_2" data-name="Layer 2" xmlns="http://www.w3.org/2000/svg" viewBox="0 0 152.86 36.62">
  <defs>
    <style>
      .cls-1 {
        fill: #fffef1;
      }

      .cls-2 {
        fill: #212121;
      }

      .cls-3 {
        fill: #fffef0;
      }
    </style>
  </defs>
  <g id="Layer_1-2" data-name="Layer 1">
    <g>
      <g>
        <path class="cls-3" d="M51.36,25.99c-.5-.15-.97-.37-1.4-.67s-.81-.64-1.15-1.04l-.72,1.7h-1.85V7.11h3.02v.23c-.12.11-.2.24-.24.37s-.05.36-.05.69v6.46c.23-.3.49-.59.79-.85.29-.26.62-.5.99-.7.37-.2.75-.34,1.15-.44.4-.09.8-.14,1.19-.14.88,0,1.68.14,2.4.42s1.35.7,1.87,1.25c.52.55.93,1.24,1.21,2.06.28.82.42,1.78.42,2.88,0,1.16-.17,2.17-.5,3.04s-.79,1.58-1.35,2.15c-.57.57-1.21.99-1.93,1.27s-1.47.42-2.25.42c-.57,0-1.1-.08-1.6-.23ZM53.93,23.93c.44-.16.84-.42,1.19-.79.36-.37.63-.86.83-1.46.2-.6.3-1.33.3-2.18,0-.8-.09-1.5-.27-2.1-.18-.6-.42-1.1-.74-1.5-.31-.4-.7-.69-1.15-.89-.45-.19-.95-.29-1.49-.29-.73,0-1.37.19-1.92.58-.55.39-.97.94-1.27,1.67-.3.72-.46,1.56-.46,2.5,0,.72.07,1.37.2,1.95.14.58.35,1.07.63,1.49.28.42.65.73,1.1.94.45.21,1,.32,1.65.32.48,0,.94-.08,1.38-.24Z"/>
        <path class="cls-3" d="M68.74,26.21c-1.05,0-2.01-.15-2.88-.43-.87-.29-1.62-.71-2.26-1.28-.64-.56-1.13-1.26-1.46-2.1-.33-.84-.5-1.79-.5-2.86s.17-2.05.52-2.89.82-1.55,1.43-2.13c.61-.58,1.32-1.02,2.14-1.33.82-.31,1.69-.46,2.61-.46.82,0,1.59.13,2.33.38.73.25,1.37.63,1.9,1.14.53.51.96,1.15,1.27,1.93s.47,1.7.47,2.75c0,.17,0,.35-.02.55s-.03.37-.05.52h-10.02c.04.76.19,1.41.46,1.95.26.54.6.99,1.02,1.33.42.34.9.59,1.43.76s1.1.25,1.71.25c.48,0,.94-.05,1.37-.14s.83-.25,1.21-.46c.38-.21.72-.46,1.04-.77l1.45,1.25c-.42.46-.9.84-1.43,1.15s-1.11.54-1.73.68c-.62.14-1.28.21-2,.21ZM64.31,18.15h7.32c0-.56-.08-1.05-.25-1.48-.17-.43-.4-.8-.69-1.12-.29-.32-.66-.55-1.08-.71-.43-.16-.91-.24-1.43-.24-.48,0-.93.07-1.35.21-.42.14-.8.36-1.15.66-.35.3-.64.67-.88,1.1s-.4.96-.49,1.58Z"/>
        <path class="cls-3" d="M84.45,26.21c-1.05,0-2.01-.15-2.88-.43-.87-.29-1.62-.71-2.26-1.28-.64-.56-1.13-1.26-1.46-2.1-.33-.84-.5-1.79-.5-2.86s.17-2.05.52-2.89.82-1.55,1.43-2.13c.61-.58,1.32-1.02,2.14-1.33.82-.31,1.69-.46,2.61-.46.82,0,1.59.13,2.33.38.73.25,1.37.63,1.9,1.14.53.51.96,1.15,1.27,1.93s.47,1.7.47,2.75c0,.17,0,.35-.02.55s-.03.37-.05.52h-10.02c.04.76.19,1.41.46,1.95.26.54.6.99,1.02,1.33.42.34.9.59,1.43.76s1.1.25,1.71.25c.48,0,.94-.05,1.37-.14s.83-.25,1.21-.46c.38-.21.72-.46,1.04-.77l1.45,1.25c-.42.46-.9.84-1.43,1.15s-1.11.54-1.73.68c-.62.14-1.28.21-2,.21ZM80.02,18.15h7.32c0-.56-.08-1.05-.25-1.48-.17-.43-.4-.8-.69-1.12-.29-.32-.66-.55-1.08-.71-.43-.16-.91-.24-1.43-.24-.48,0-.93.07-1.35.21-.42.14-.8.36-1.15.66-.35.3-.64.67-.88,1.1s-.4.96-.49,1.58Z"/>
        <path class="cls-3" d="M109.65,25.99v-1.93h4.18v-15.02h-3.99v-1.93h6.73v16.95h4.18v1.93h-11.09Z"/>
        <path class="cls-3" d="M131.59,26.21c-1.05,0-2.01-.15-2.88-.43-.87-.29-1.62-.71-2.26-1.28-.64-.56-1.13-1.26-1.46-2.1-.33-.84-.5-1.79-.5-2.86s.17-2.05.52-2.89.82-1.55,1.43-2.13c.61-.58,1.32-1.02,2.14-1.33.82-.31,1.69-.46,2.61-.46.82,0,1.59.13,2.33.38.73.25,1.37.63,1.9,1.14.53.51.96,1.15,1.27,1.93s.47,1.7.47,2.75c0,.17,0,.35-.02.55s-.03.37-.05.52h-10.02c.04.76.19,1.41.46,1.95.26.54.6.99,1.02,1.33.42.34.9.59,1.43.76s1.1.25,1.71.25c.48,0,.94-.05,1.37-.14s.83-.25,1.21-.46c.38-.21.72-.46,1.04-.77l1.45,1.25c-.42.46-.9.84-1.43,1.15s-1.11.54-1.73.68c-.62.14-1.28.21-2,.21ZM127.16,18.15h7.32c0-.56-.08-1.05-.25-1.48-.17-.43-.4-.8-.69-1.12-.29-.32-.66-.55-1.08-.71-.43-.16-.91-.24-1.43-.24-.48,0-.93.07-1.35.21-.42.14-.8.36-1.15.66-.35.3-.64.67-.88,1.1s-.4.96-.49,1.58Z"/>
        <path class="cls-3" d="M147.3,26.21c-1.05,0-2.01-.15-2.88-.43-.87-.29-1.62-.71-2.26-1.28-.64-.56-1.13-1.26-1.46-2.1-.33-.84-.5-1.79-.5-2.86s.17-2.05.52-2.89.82-1.55,1.43-2.13c.61-.58,1.32-1.02,2.14-1.33.82-.31,1.69-.46,2.61-.46.82,0,1.59.13,2.33.38.73.25,1.37.63,1.9,1.14.53.51.96,1.15,1.27,1.93s.47,1.7.47,2.75c0,.17,0,.35-.02.55s-.03.37-.05.52h-10.02c.04.76.19,1.41.46,1.95.26.54.6.99,1.02,1.33.42.34.9.59,1.43.76s1.1.25,1.71.25c.48,0,.94-.05,1.37-.14s.83-.25,1.21-.46c.38-.21.72-.46,1.04-.77l1.45,1.25c-.42.46-.9.84-1.43,1.15s-1.11.54-1.73.68c-.62.14-1.28.21-2,.21ZM142.87,18.15h7.32c0-.56-.08-1.05-.25-1.48-.17-.43-.4-.8-.69-1.12-.29-.32-.66-.55-1.08-.71-.43-.16-.91-.24-1.43-.24-.48,0-.93.07-1.35.21-.42.14-.8.36-1.15.66-.35.3-.64.67-.88,1.1s-.4.96-.49,1.58Z"/>
      </g>
      <g>
        <path class="cls-2" d="M14.3,35.6h0l-1.51-.87-.05-.03-4.78-2.76h0l-1.56-.9-1.53-.89-.05-.03L.1,27.4V9.33l1.43.83,1.59.92,1.59.92,1.61.93h0l1.56.9,1.53.89.05.03,1.61.93h0l1.56.9,3.12,1.8v18.07l-1.45-.84ZM11.05,30.3l1.74,1.01v-3.9l-3.2-1.85h-.02s-1.59-.93-1.59-.93l-1.61-.93h0l-1.51-.87-.05-.03-1.74-1.01v3.9l3.17,1.83.08.04,1.56.9,1.59.92,1.56.9h.02ZM12.79,23.98v-3.9l-1.66-.96h0l-1.56-.9-1.53-.89-.08-.04-3.1-1.79-.05-.03-1.74-1.01v3.9l1.62.93h.02s1.59.93,1.59.93l1.61.93h0l4.89,2.82Z"/>
        <polygon class="cls-2" points="15.96 18.37 17.47 17.5 17.49 17.48 19.08 16.57 20.66 15.65 22.25 14.74 23.81 13.84 23.84 13.82 25.47 12.88 25.47 12.88 27.01 11.99 28.59 11.08 30.15 10.17 30.18 10.16 31.61 9.33 31.61 12.76 30.1 13.63 30.02 13.67 26.85 15.5 26.85 15.5 23.68 17.33 23.68 17.33 22.22 18.18 22.09 18.25 20.58 19.12 20.56 19.13 18.92 20.08 18.92 23.98 22.3 22.03 22.3 22.03 23.89 21.12 23.89 21.12 25.4 20.24 25.42 20.23 27.06 19.28 27.06 19.28 31.61 16.66 31.61 20.08 30.02 21 30.02 21 26.85 22.83 26.85 22.83 25.32 23.71 23.76 24.61 23.73 24.63 22.09 25.57 22.09 25.57 18.92 27.4 18.92 31.31 20.72 30.27 20.72 30.27 22.23 29.4 22.25 29.38 23.89 28.44 23.89 28.44 28.64 25.69 28.64 25.69 30.15 24.82 30.18 24.81 31.61 23.98 31.61 27.4 30.02 28.32 30.02 28.32 23.68 31.98 23.68 31.98 22.17 32.85 22.15 32.87 20.56 33.78 19 34.68 18.97 34.7 17.39 35.61 15.96 36.44 15.96 18.37"/>
        <g>
          <polygon class="cls-2" points="12.74 16.4 11.14 15.47 11.13 15.47 9.63 14.6 9.57 14.56 7.99 13.65 6.38 12.72 6.38 12.72 4.82 11.82 3.23 10.9 1.65 9.99 .22 9.16 1.65 8.34 3.23 7.42 4.75 6.55 4.87 6.48 6.4 5.59 7.96 4.69 7.99 4.68 9.57 3.76 11.13 2.86 11.16 2.84 12.74 1.93 14.31 1.03 14.33 1.01 15.86 .13 17.4 1.01 18.83 1.84 17.42 2.65 17.4 2.66 15.76 3.61 15.76 3.61 14.25 4.48 14.17 4.53 11 6.36 11 6.36 9.47 7.24 7.88 8.16 6.14 9.16 7.83 10.14 7.88 10.17 9.49 11.1 9.52 11.13 9.57 11.08 11.13 10.18 11.16 10.17 12.74 9.25 17.55 6.48 17.55 6.48 19.09 5.59 20.67 4.68 22.21 3.79 23.69 4.65 23.74 4.68 25.17 5.5 23.74 6.33 22.18 7.23 22.15 7.24 20.57 8.16 12.48 12.82 14.17 13.8 14.23 13.83 15.86 14.78 17.5 13.83 19.02 12.96 19.14 12.88 20.67 12 22.26 11.08 23.9 10.14 23.9 10.14 28.55 7.45 31.51 9.16 30.11 9.97 30.08 9.99 28.5 10.9 26.91 11.82 25.27 12.76 25.27 12.76 23.76 13.64 23.74 13.65 22.15 14.57 20.57 15.48 18.98 16.4 17.42 17.3 17.4 17.31 15.86 18.2 12.74 16.4"/>
          <g>
            <path class="cls-1" d="M18.82,1.88l.06.03v1.66l-1.51.87-1.59.92-1.59.92h-.02s-3.15,1.83-3.15,1.83h-.01s-1.57.92-1.57.92l-1.51.87-1.29-.74,1.36-.79,1.59-.92-.1-.18,1.49-.86.1-.06,1.59-.92,1.48-.86.1-.06.03.05.07.13,1.59-.92,1.59-.92-.07-.13-.03-.05.05-.03,1.22-.71.13-.08M25.22,5.75v1.49l-1.51.87-1.59.92-1.59.92-1.59.92-1.59.92h-.02s-1.57.92-1.57.92l-1.59.92-.13.08-1.41-.81-.09-.05.09-.05,1.59-.92.1.18,1.59-.92,1.59-.92,1.59-.92-.1-.18,1.59-.92,1.58-.92h0s.1.18.1.18l1.59-.92,1.36-.79M.21,9.21l.13.08,1.27.74,1.59.92,1.59.92,1.54.89h0s0,0,0,0l.05.03,1.59.92,1.58.91.1.06,1.43.83.05.03,1.59.92,1.59.92,1.48.86.07.04.07-.04,1.48-.86.05-.03,1.54-.89,1.59-.92,1.59-.92,1.58-.92.05-.03,1.43-.83.1-.06,1.59-.92,1.59-.92,1.58-.91.05-.03,1.23-.71.13-.08.06.03v.07l-.13.08-1.27.74-.05.03-1.54.89-1.59.92-1.49.86-.1.06-1.58.91-.05.03-1.54.89-1.59.92-1.59.92-1.58.91-.05.03-1.43.83-.07.04v18.07l-.06.03-.06-.03v-18.07l-.07-.04-1.48-.86-1.59-.92-1.54-.89-.05-.03-1.58-.91-.1-.06-1.48-.86-1.54-.89-.05-.03-1.59-.92-1.59-.92-1.59-.92-1.27-.74-.13-.08v-.07l.06-.03M30.13,15.73l1.44.83v.07s-.13.08-.13.08l-1.27.74-1.59.92-1.48.86-.1.06-1.58.91-.05.03-1.43.83-.1.06-1.54.89-.04.03-.1-.18-1.59.92.1.18-1.59.92-.09.05v-1.73l.13-.08,1.59-.92,1.59-.92,1.59-.92,1.59-.92,1.59-.92,1.59-.92,1.51-.87M30.13,23.06l1.44.83v.07l-.13.08-1.27.74-.05.03-1.43.83-.1.06-1.59.92-1.59.92-1.48.86-.1.06-1.58.91h0s-.1-.18-.1-.18l-1.59.92.1.18h0s-1.59.92-1.59.92l-.09.05v-1.73l.13-.08,1.59-.92,1.59-.92,1.59-.92,1.59-.92,1.59-.92,1.59-.92,1.51-.87M15.86,0h0l-1.58.92h0l-1.59.92-1.59.92h0l-1.59.92-1.59.92h0l-1.59.92-1.59.92h0s0,0,0,0l-1.58.92-1.59.92-1.59.92v18.31l1.59.92,1.59.92,1.59.92h0s1.59.92,1.59.92l1.59.92h0l1.59.92,1.59.92,1.59.92h0s1.59.92,1.59.92h0l1.59.91,1.59-.91,1.59-.92h0l1.59-.92,1.59-.92h0l1.59-.92h0s3.17-1.83,3.17-1.83h0s1.59-.92,1.59-.92l1.59-.92h0s1.59-.92,1.59-.92v-3.66h0s-1.59-.92-1.59-.92h0l-1.59.92-1.59.92-1.59.92h0s-1.59.92-1.59.92h0l-1.59.92-1.59.92-1.59.92v-1.83l1.59-.92,1.59-.92h0s1.59-.92,1.59-.92h0l1.59-.92,1.59-.92h0s3.17-1.83,3.17-1.83h0s1.59-.92,1.59-.92h0v-3.66h0s-1.59-.92-1.59-.92l-1.59.92-1.59.92h0s0,0,0,0l-1.59.92-1.59.92-1.59.92h0l-1.59.92-1.59.92v-1.83l1.59-.92h0l1.58-.92h0s0,0,0,0l1.59-.92h0s1.59-.92,1.59-.92l1.59-.92h0s1.59-.92,1.59-.92l1.59-.92h0s0,0,0,0l1.59-.92v-3.66l-1.59-.92-1.59-.92-1.59.92-1.59.92-1.59.92h0s-1.59.92-1.59.92l-1.59.92-1.59.92h0s0,0,0,0l-1.59.92-1.59.92-1.59-.92h0s1.59-.92,1.59-.92h0l1.58-.92h0s1.59-.92,1.59-.92h0l1.59-.92,1.59-.92,1.59-.92,1.59-.92v-1.83l-1.59.92-1.59.92h0l1.59-.92,1.59-.92-1.59-.92h0s-1.59-.92-1.59-.92l-1.59.92-1.59.92-1.59.92h0s-1.59.92-1.59.92l-1.59.92-1.59.92-1.59.92h0l-1.58.92h0l-1.59-.92h0s-1.59-.92-1.59-.92l1.59-.92,1.59-.92-1.59.92-1.59.92,1.59.92,1.59-.92,1.59-.92h0s3.17-1.83,3.17-1.83h0s0,0,0,0l1.59-.92,1.59-.92,1.59-.92v-1.83h0l-1.59-.92L15.86,0h0ZM6.4,12.61l-1.54-.89-1.59-.92-1.59-.92-1.27-.74,1.27-.74,1.59-.92,1.45-.84.24-.14,1.48-.86,1.54-.89h0l.05-.03,1.59-.92,1.54-.89h0l.05-.03,1.59-.92,1.54-.89h0l.05-.03,1.48-.86,1.48.86,1.27.74-1.22.71h0l-.05.03-1.59.92-.1.06-1.43.83-.15.09-1.48.86-1.59.92-.1.06-1.49.86-1.59.92-1.59.92-.31.18.31.18,1.48.86h0s.1.06.1.06l1.59.92.05.03.06.03.05-.03.05-.03,1.54-.89h0l.05-.03,1.59-.92,1.59-.92,1.59-.92,1.59-.92.1-.06,1.49-.86,1.59-.92,1.48-.86,1.38.8h0s.1.06.1.06l1.27.74-1.27.74-1.54.89h0l-.05.03-1.59.92-1.59.92-1.59.92-1.59.92-1.59.92-1.59.92-.31.18.31.18,1.48.86h0s.1.06.1.06l1.59.92.1.06.1-.06,1.59-.92,1.44-.83.25-.14,1.48-.86,1.59-.92,1.59-.92.1-.06h0s1.48-.86,1.48-.86l1.59-.92,1.48-.86,1.48.86,1.27.74-1.23.71h0l-.05.03-1.59.92-1.59.92-1.59.92-.1.06h0s-1.43.83-1.43.83h0l-.05.03-1.59.92-1.59.92-1.59.92-1.54.89h0l-.05.03-1.48.86-1.48-.86-1.59-.92-1.59-.92-.05-.03h0l-1.43-.83h0s-.1-.06-.1-.06l-1.59-.92-1.59-.92-.05-.03h0ZM14.27,4.58l1.59-.92h0s1.59-.92,1.59-.92h0l-1.59.92h0s-1.59.92-1.59.92h0ZM14.27,11.9l1.59-.92,1.59-.92,1.59-.92-1.59.92-1.59.92-1.59.92h0ZM16.06,36.26v-17.83l1.43-.83h0l.05-.03,1.59-.92,1.59-.92,1.59-.92,1.54-.89h0l.05-.03,1.59-.92.1-.06,1.49-.86,1.59-.92,1.54-.89h0l.05-.03,1.27-.74v3.18l-1.43.83-.15.09-1.48.86-1.59.92-.1.06-1.49.86-1.59.92-.1.06-1.34.77-.24.14-1.43.83h0l-.05.03-1.59.92-.1.06v4.14l.31-.18,1.59-.92,1.59-.92.05-.03,1.54-.89.1-.06,1.43-.83h0l.05-.03,1.59-.92.1-.06,1.48-.86,1.59-.92,1.27-.74v3.18l-1.48.86-.1.06-3.07,1.77-.1.06-1.49.86-1.54.89h0l-.05.03-1.59.92-.1.06-1.48.86-1.59.92-.1.06v4.14l.31-.18,1.59-.92.1-.06,1.43-.83h0l.05-.03,1.59-.92.1-.06,1.48-.86,1.59-.92,1.59-.92.1-.06,1.43-.83h0l.05-.03,1.27-.74v3.18l-1.48.86-.1.06h0s-1.48.86-1.48.86l-1.59.92-.04.03-3.13,1.81-.1.06-1.43.83h0l-.05.03-1.59.92-1.54.89h0l-.05.03-1.59.92-1.27.73h0ZM15.65,36.26l-1.27-.73-.05-.03-1.43-.83h0s-.1-.06-.1-.06l-1.59-.92-1.59-.92-1.59-.92-.05-.03-1.54-.89-1.48-.86h0s-.1-.06-.1-.06l-1.59-.92-1.59-.92-1.48-.86V9.51l1.27.74,1.59.92,1.59.92,1.59.92.05.03,1.54.89,1.48.86h0s.1.06.1.06l1.59.92.05.03,1.54.89,1.59.92,1.48.86v17.83h0ZM20.61,22.89l1.59-.92h0s0,0,0,0h0s-1.59.92-1.59.92h0ZM20.61,30.21l1.59-.92h0l-1.59.92h0Z"/>
            <g>
              <path class="cls-3" d="M3.04,25.71v-3.97l9.78,5.65v3.97l-9.78-5.65ZM4.68,24.76l8.08,4.66v-2l-8.08-4.66v2Z"/>
              <path class="cls-1" d="M3.11,21.87l.09.05,1.41.81v2.07l.07.04,1.59.92h0l1.59.92,1.59.92,1.59.92,1.59.92.13.08v1.73l-.09-.05-1.59-.92-.1-.06-1.48-.86h0l.1-.18-1.59-.92-1.59-.92-.1.18-.1-.06-1.48-.86-1.59-.92-.03-.02v-3.8M2.96,21.61v4.14l.1.06,1.59.92,1.48.86.15.09,1.54.89,1.59.92,1.48.86h0s.1.06.1.06l1.59.92.31.18v-4.14l-.1-.06-1.59-.92-1.48-.86h0s-.1-.06-.1-.06l-1.59-.92-1.59-.92-.05-.03h0l-1.43-.83h0s-.1-.06-.1-.06l-1.59-.92-.31-.18h0ZM6.34,25.63h0s-1.59-.92-1.59-.92v-1.83l1.59.92h0l1.59.92,1.59.92h0s0,0,0,0l1.59.92,1.59.92v1.83l-1.59-.92h0l-1.59-.92-1.59-.92-1.59-.92h0ZM9.51,29.29l-1.59-.92-1.59-.92,1.59.92,1.59.92h0Z"/>
            </g>
            <g>
              <g>
                <path class="cls-3" d="M31.64,12.77v-3.58l-3.1-1.79-12.68,7.32-1.73-1,11.17-6.45v-1.74l-3.1-1.79-12.68,7.32-1.73-1,11.17-6.45v-1.74S15.86.09,15.86.09L.07,9.2v18.22l15.78,9.11,15.78-9.11v-3.58l-1.51-.87-11.17,6.45v-2l12.68-7.32v-3.58l-1.51-.87-11.17,6.45v-2l12.68-7.32ZM14.31,11.97l-.07-.13,4.76-2.75.07.13-4.76,2.75ZM6.38,9.22l-.07-.13,3.17-1.83.07.13-3.17,1.83ZM14.31,4.64l-.07-.13,3.17-1.83.07.13-3.17,1.83ZM15.72,36.39L.13,27.39V9.39l15.59,9v18ZM.27,9.15L15.86.15l2.9,1.68-12.68,7.32,3.44,1.99,12.68-7.32,2.9,1.68-12.68,7.32,3.44,1.98,12.68-7.32,2.9,1.68-15.59,9L.27,9.15ZM22.16,29.23l.07.13-1.58.92-.07-.13,1.58-.92ZM31.58,16.71v3.35l-12.68,7.32v3.97l12.68-7.32v3.35l-15.59,9v-18l15.59-9v3.35l-12.68,7.32v3.97l12.68-7.32Z"/>
                <path class="cls-3" d="M12.82,20.06L3.04,14.42v3.97l9.78,5.65v-3.97ZM12.76,22.1l-8.08-4.66v-2l8.08,4.66v2Z"/>
              </g>
              <path class="cls-1" d="M3.11,14.55l.09.05,1.41.81v2.07l.07.04,1.59.92,1.59.92h0s1.59.92,1.59.92l1.59.92,1.59.92.13.08v1.73l-.09-.05-1.59-.92-1.59-.92.1-.18-1.59-.92-.1.18h0s.03-.05.03-.05l.07-.13-1.59-.92-.1.18h0l-1.59-.91-.1-.06-1.48-.86-.03-.02v-3.8M2.96,14.29v4.14l.1.06,1.48.86h0s.1.06.1.06l1.59.92,1.59.92.05.03h0l1.54.89,1.59.92,1.59.92.31.18v-4.14l-.1-.06-1.59-.92-.05-.03-1.54-.89-1.48-.86-.15-.09-1.54-.89-1.48-.86h0s-.1-.06-.1-.06l-1.59-.92-.31-.18h0ZM7.93,19.22l-1.59-.92-1.59-.92v-1.83l1.59.92,1.59.92h0s1.59.92,1.59.92l1.59.92h0l1.59.92v1.83l-1.59-.92h0l-1.59-.92-1.59-.92h0ZM7.93,21.06l-1.59-.92,1.59.92h0ZM9.51,21.97l-1.59-.92h0l1.59.92h0Z"/>
            </g>
          </g>
        </g>
      </g>
    </g>
  </g>
</svg>