<?xml version="1.0" encoding="UTF-8"?>
<svg id="Layer_2" data-name="Layer 2" xmlns="http://www.w3.org/2000/svg" viewBox="0 0 51.47 58.96">
  <defs>
    <style>
      .cls-1 {
        fill: #fffef1;
      }

      .cls-2 {
        fill: #212121;
      }
    </style>
  </defs>
  <g id="Layer_1-2" data-name="Layer 1">
    <path class="cls-2" d="M50.71,14.18L26.49.2c-.47-.27-1.05-.27-1.52,0L.76,14.18C.29,14.46,0,14.96,0,15.5v27.96c0,.54.29,1.04.76,1.32l24.21,13.98c.47.27,1.05.27,1.52,0l24.21-13.98c.47-.27.76-.77.76-1.32V15.5c0-.54-.29-1.04-.76-1.32Z"/>
    <g>
      <path class="cls-1" d="M21.72,41.88l-13.95-8.05c-.19-.11-.43-.11-.62,0s-.31.32-.31.54v5.66c0,.22.12.43.31.54l13.95,8.05c.1.06.21.08.31.08s.22-.03.31-.08c.19-.11.31-.32.31-.54v-5.66c0-.22-.12-.43-.31-.54ZM10.43,38.32v-1.41l10.27,5.93v1.41l-10.27-5.93Z"/>
      <path class="cls-1" d="M48.55,22.13c.19-.11.31-.32.31-.54v-5.1c0-.22-.12-.43-.31-.54l-4.42-2.55c-.19-.11-.43-.11-.62,0l-17.77,10.26-1.22-.71,15-8.66c.19-.11.31-.32.31-.54v-2.49c0-.22-.12-.43-.31-.54l-4.42-2.55c-.19-.11-.43-.11-.62,0l-17.77,10.26-1.22-.71,15-8.66c.19-.11.31-.32.31-.54v-2.49c0-.22-.12-.43-.31-.54l-4.42-2.55c-.19-.11-.43-.11-.62,0L2.92,15.95c-.19.11-.31.32-.31.54v25.98c0,.22.12.43.31.54l22.5,12.99c.1.06.21.08.31.08s.22-.03.31-.08l22.5-12.99c.19-.11.31-.32.31-.54v-5.1c0-.22-.12-.43-.31-.54l-2.16-1.24c-.19-.11-.43-.11-.62,0l-14.99,8.66v-1.41l17.77-10.26c.19-.11.31-.32.31-.54v-5.1c0-.22-.12-.43-.31-.54l-2.16-1.24c-.19-.11-.43-.11-.62,0l-14.99,8.66v-1.41l17.77-10.26ZM25.73,4.32l2.89,1.67L11.48,15.89c-.19.11-.31.32-.31.54s.12.43.31.54l4.9,2.83c.19.11.43.11.62,0l17.77-10.26,2.89,1.67-17.15,9.9c-.19.11-.31.32-.31.54s.12.43.31.54l4.9,2.83c.19.11.43.11.62,0l17.77-10.26,2.89,1.67-20.98,12.11L4.76,16.43,25.73,4.32ZM29.75,38.18c.19.11.43.11.62,0l17.15-9.9v3.34l-17.77,10.26c-.19.11-.31.32-.31.54v5.66c0,.22.12.43.31.54s.43.11.62,0l17.15-9.9v3.34l-20.98,12.11v-24.22l20.98-12.11v3.34l-17.77,10.26c-.19.11-.31.32-.31.54v5.66c0,.22.12.43.31.54ZM3.94,42.06v-24.22l20.98,12.11v24.22L3.94,42.06Z"/>
      <path class="cls-1" d="M21.72,31.44l-13.95-8.05c-.19-.11-.43-.11-.62,0s-.31.32-.31.54v5.66c0,.22.12.43.31.54l13.95,8.05c.1.06.2.08.31.08s.22-.03.31-.08c.19-.11.31-.32.31-.54v-5.66c0-.22-.12-.43-.31-.54ZM10.43,27.88v-1.41l10.27,5.93v1.41l-10.27-5.93Z"/>
    </g>
  </g>
</svg>